<?xml version="1.0" standalone="no"?>
<!DOCTYPE svg PUBLIC "-//W3C//DTD SVG 20010904//EN"
 "http://www.w3.org/TR/2001/REC-SVG-20010904/DTD/svg10.dtd">
<svg version="1.0" xmlns="http://www.w3.org/2000/svg"
 width="535.000000pt" height="535.000000pt" viewBox="0 0 535.000000 535.000000"
 preserveAspectRatio="xMidYMid meet">
<metadata>
Created by potrace 1.14, written by Peter Selinger 2001-2017
</metadata>
<g transform="translate(0.000000,535.000000) scale(0.100000,-0.100000)"
fill="#000000" stroke="none">
<path d="M2048 5345 c-2 -2 -44 -6 -93 -9 -50 -2 -90 -5 -90 -6 0 -3 -42 -10
-72 -13 -18 -1 -33 -5 -33 -9 0 -4 -9 -5 -20 -3 -11 2 -22 -1 -25 -6 -4 -5
-10 -7 -15 -4 -5 3 -11 1 -15 -5 -3 -5 -14 -10 -24 -10 -10 0 -24 -7 -31 -15
-7 -8 -16 -12 -21 -9 -5 3 -9 0 -9 -7 0 -7 -3 -10 -6 -6 -4 3 -25 -12 -48 -33
-22 -22 -44 -40 -48 -40 -5 0 -8 -7 -8 -15 0 -9 -7 -18 -15 -21 -8 -4 -13 -10
-10 -14 3 -5 1 -11 -5 -15 -6 -4 -8 -11 -5 -16 4 -5 1 -9 -4 -9 -6 0 -10 -3
-10 -7 1 -5 1 -10 -1 -13 -14 -37 -18 -179 -6 -250 4 -25 8 -54 10 -65 3 -23
62 -209 78 -245 5 -14 14 -33 19 -42 5 -10 9 -25 9 -33 0 -8 4 -15 10 -15 5 0
7 -7 4 -15 -4 -8 -1 -15 5 -15 6 0 10 -3 9 -7 -2 -11 10 -41 38 -95 13 -27 21
-48 17 -48 -3 0 2 -9 12 -20 10 -11 15 -20 11 -20 -4 0 3 -14 15 -32 13 -17
17 -28 10 -24 -10 6 -10 3 1 -13 7 -12 15 -21 19 -21 3 0 6 -6 6 -12 1 -25 8
-42 25 -62 10 -10 15 -23 11 -29 -3 -5 -1 -12 4 -16 12 -7 58 -103 55 -113 -1
-5 3 -8 9 -8 6 0 9 -6 6 -12 -2 -7 3 -19 12 -26 9 -8 10 -11 4 -7 -9 4 -11 1
-7 -9 3 -9 10 -16 15 -16 5 0 9 -6 10 -12 0 -7 11 -35 24 -63 13 -27 21 -53
19 -57 -3 -5 -1 -8 3 -8 5 0 15 -17 22 -37 7 -21 19 -51 26 -68 32 -73 103
-311 110 -365 2 -19 5 -35 6 -35 2 0 9 -74 10 -115 1 -19 -2 -60 -6 -90 -4
-30 -7 -63 -8 -72 -1 -10 -5 -18 -10 -18 -4 0 -6 -3 -4 -8 5 -8 -12 -47 -56
-123 -28 -50 -56 -85 -100 -127 -16 -15 -39 -38 -53 -51 -13 -13 -24 -21 -24
-18 0 4 -14 -7 -31 -24 -17 -17 -42 -34 -56 -40 -14 -5 -21 -14 -17 -21 4 -7
3 -8 -5 -4 -6 4 -14 0 -17 -8 -3 -9 -10 -14 -14 -11 -5 3 -15 -2 -23 -10 -9
-8 -20 -15 -26 -15 -6 0 -11 -4 -11 -10 0 -5 -7 -10 -15 -10 -8 0 -15 -5 -15
-11 0 -5 -4 -7 -10 -4 -5 3 -10 1 -10 -4 0 -6 -4 -11 -10 -11 -5 0 -34 -16
-65 -35 -30 -19 -66 -40 -80 -45 -14 -5 -25 -14 -25 -20 0 -5 -3 -9 -7 -8 -16
4 -102 -46 -96 -55 3 -6 1 -7 -5 -3 -6 3 -16 1 -24 -6 -7 -7 -19 -14 -27 -16
-7 -1 -20 -9 -28 -17 -8 -9 -19 -13 -24 -10 -5 4 -9 2 -9 -3 0 -5 -16 -17 -36
-27 -19 -9 -38 -23 -41 -31 -3 -8 -9 -12 -13 -9 -5 3 -15 -2 -23 -10 -9 -8
-20 -15 -26 -15 -6 0 -11 -5 -11 -12 0 -6 -3 -9 -6 -6 -3 3 -19 -7 -37 -23
-17 -16 -33 -27 -35 -25 -2 2 -23 -16 -46 -40 -24 -24 -48 -44 -55 -44 -6 0
-11 -7 -11 -16 0 -8 -5 -12 -10 -9 -6 3 -10 0 -10 -9 0 -8 -4 -16 -8 -18 -11
-4 -56 -66 -82 -113 -22 -40 -31 -66 -33 -97 -1 -10 -5 -18 -9 -18 -22 0 0
-248 24 -277 6 -7 7 -13 2 -13 -4 0 -3 -5 4 -12 7 -7 12 -20 12 -30 0 -10 6
-21 13 -24 7 -2 14 -14 14 -27 1 -12 8 -26 15 -32 7 -5 14 -16 16 -24 2 -7 16
-33 32 -57 17 -23 30 -47 30 -53 0 -6 5 -11 10 -11 6 0 10 -5 10 -11 0 -12 59
-101 74 -111 7 -5 6 -8 -3 -8 -9 0 -7 -6 7 -19 12 -10 22 -23 22 -30 0 -6 4
-11 9 -11 5 0 13 -10 17 -22 4 -13 10 -25 14 -28 4 -3 17 -23 29 -45 11 -22
21 -35 21 -30 1 6 8 -3 17 -20 9 -16 15 -30 13 -30 -4 0 25 -36 48 -60 6 -8
12 -18 12 -24 0 -6 5 -11 10 -11 6 0 10 -6 10 -12 0 -7 14 -27 30 -45 17 -18
30 -36 30 -42 0 -5 8 -15 18 -20 9 -6 13 -11 8 -11 -5 0 1 -9 14 -20 13 -11
19 -20 14 -20 -5 0 -1 -5 9 -11 9 -5 17 -16 17 -24 0 -7 10 -17 21 -20 17 -6
19 -9 8 -16 -11 -7 -10 -9 4 -9 9 0 17 -4 17 -9 0 -9 39 -55 121 -141 22 -23
39 -38 39 -34 0 4 10 -5 23 -19 12 -15 28 -27 35 -27 7 0 12 -4 12 -10 0 -5 7
-10 15 -10 8 0 15 -4 15 -10 0 -5 7 -10 15 -10 8 0 15 -4 15 -9 0 -5 15 -13
33 -16 17 -4 37 -11 42 -15 15 -12 98 -5 126 11 13 7 26 13 29 13 3 0 17 12
32 28 15 15 24 28 21 28 -3 0 5 11 19 23 14 13 29 34 33 45 3 12 11 22 17 22
5 0 8 6 6 12 -3 7 4 21 13 32 10 10 16 23 13 28 -3 4 0 8 5 8 6 0 11 9 11 20
0 11 5 20 10 20 6 0 10 9 10 19 0 11 5 23 10 26 6 4 8 11 5 16 -4 5 -1 9 5 9
6 0 10 6 9 13 -1 6 10 39 25 72 15 32 28 67 29 76 1 10 4 16 8 13 7 -4 24 44
21 59 -1 4 3 7 8 7 5 0 9 3 9 8 -3 19 2 33 11 27 6 -3 7 1 4 9 -4 9 -1 16 6
16 7 0 10 7 6 15 -3 8 2 19 12 24 9 6 13 11 9 11 -4 0 -2 10 5 23 7 12 11 25
10 30 -1 4 3 7 8 7 6 0 10 9 10 20 0 11 5 20 10 20 6 0 10 6 10 13 0 7 16 36
35 64 19 29 35 55 35 57 0 5 8 16 52 68 10 12 18 25 18 30 0 5 5 6 10 3 6 -3
10 -2 10 4 0 13 53 66 62 63 5 -1 7 4 5 11 -1 6 3 11 10 10 6 -2 15 6 18 17 4
11 11 18 16 15 5 -4 9 -1 9 5 0 6 5 8 10 5 6 -3 10 1 10 9 0 9 5 16 11 16 6 0
16 6 23 13 8 6 24 19 36 27 12 8 31 23 42 32 11 10 29 20 39 23 11 4 19 10 19
14 0 4 16 13 35 21 19 8 35 17 35 22 0 4 9 8 20 8 11 0 20 5 20 10 0 6 7 10
15 10 8 0 15 4 15 10 0 5 3 9 8 8 4 -1 21 4 37 11 17 7 31 12 33 12 1 -1 11 8
23 20 11 11 27 18 34 15 8 -3 15 -2 17 3 4 10 86 51 102 51 7 0 19 7 26 15 7
8 16 12 21 9 5 -3 9 0 9 6 0 6 5 8 10 5 6 -3 10 -1 10 4 0 6 9 11 19 11 11 0
23 5 26 10 4 6 11 8 16 5 5 -4 9 -2 9 2 0 5 19 17 43 28 23 10 71 32 107 50
36 17 68 32 73 33 4 1 40 18 80 39 39 20 75 36 80 35 4 -1 7 3 7 9 0 5 4 8 9
5 5 -3 14 1 21 9 7 8 18 15 26 15 7 0 20 8 30 18 10 9 18 16 18 14 2 -6 41 12
48 22 3 5 13 10 20 12 7 1 31 13 52 27 20 15 46 29 57 32 10 4 19 11 19 16 0
5 7 9 15 9 8 0 15 5 15 10 0 6 7 10 15 10 8 0 15 5 15 11 0 5 4 8 9 5 5 -3 11
1 15 9 3 8 13 15 21 15 9 0 13 5 10 11 -4 6 0 9 11 7 11 -2 18 2 17 9 -2 7 9
16 23 19 16 4 23 11 20 21 -3 8 -2 12 3 9 11 -7 93 59 84 68 -4 3 -1 6 5 6 7
0 39 27 71 60 33 33 57 60 55 60 -2 0 4 8 14 18 36 38 62 72 62 82 0 6 3 10 8
10 4 0 16 17 27 38 11 20 26 43 32 50 7 7 13 20 13 28 0 8 5 14 10 14 6 0 10
7 10 15 0 8 5 15 11 15 5 0 8 4 5 8 -3 5 1 20 9 35 7 14 11 28 7 31 -3 3 0 6
7 6 7 0 9 5 6 10 -3 6 -2 10 4 10 6 0 8 6 5 14 -3 8 -1 17 5 21 6 3 11 16 11
29 0 12 3 26 7 30 4 4 9 19 11 34 2 14 8 32 13 38 5 7 9 16 7 20 -1 5 2 32 6
59 3 28 9 66 11 85 8 54 7 369 -1 381 -3 6 -8 32 -9 57 -2 26 -4 49 -5 52 -1
3 -2 9 -1 14 1 5 -1 16 -5 25 -4 9 -8 27 -10 41 -7 46 -10 55 -17 68 -5 6 -6
12 -3 12 3 0 -1 18 -9 40 -8 22 -12 40 -9 40 2 0 -1 10 -8 23 -6 12 -13 31
-15 42 -2 10 -7 22 -11 25 -4 3 -9 14 -10 25 -2 11 -13 38 -23 59 -10 22 -19
45 -19 52 0 7 -4 14 -8 16 -5 2 -25 38 -46 80 -20 43 -44 81 -52 86 -9 5 -15
12 -13 16 2 9 -18 41 -43 67 -9 9 -15 19 -12 21 2 2 -14 26 -36 52 -22 27 -40
52 -40 57 0 5 -7 9 -16 9 -8 0 -12 5 -9 10 3 6 2 10 -4 10 -5 0 -13 9 -16 20
-3 11 -13 20 -21 20 -8 0 -14 4 -14 10 0 15 -157 166 -260 250 -17 14 -37 31
-45 38 -7 6 -19 12 -25 12 -6 0 -13 7 -16 15 -4 8 -12 15 -19 15 -7 0 -16 7
-19 16 -4 9 -9 14 -12 11 -4 -3 -11 -1 -18 4 -48 41 -60 48 -67 43 -5 -3 -9 3
-9 12 0 10 -3 15 -6 11 -4 -3 -21 5 -39 18 -17 14 -39 25 -47 25 -9 0 -19 7
-22 16 -3 8 -10 13 -15 10 -4 -3 -19 3 -31 14 -13 11 -29 20 -36 20 -7 0 -14
4 -16 9 -1 5 -12 11 -23 13 -11 1 -22 6 -25 9 -4 6 -155 80 -170 84 -3 1 -18
8 -35 15 -16 7 -32 14 -35 15 -25 8 -48 18 -62 26 -10 5 -27 9 -38 9 -14 0
-19 4 -14 13 4 6 4 9 0 5 -7 -6 -58 8 -106 29 -8 3 -18 6 -22 5 -4 -1 -24 6
-45 14 -21 9 -39 16 -40 15 -2 0 -4 -1 -5 0 -2 0 -10 2 -18 4 -8 2 -33 9 -55
15 -38 10 -64 16 -110 24 -11 2 -20 4 -20 5 0 3 -18 7 -69 15 -21 4 -49 9 -62
12 -13 3 -36 7 -51 9 -15 2 -48 6 -73 10 -87 11 -126 15 -235 20 -60 3 -115 8
-122 10 -6 2 -13 2 -15 0z"/>
<path d="M2800 873 c-137 -47 -213 -153 -217 -303 -2 -104 22 -171 89 -240 66
-70 125 -94 228 -94 71 -1 93 4 135 24 64 32 124 92 155 155 21 43 25 64 24
145 0 80 -4 103 -24 145 -30 62 -94 125 -157 155 -61 29 -169 35 -233 13z"/>
</g>
</svg>
